<?xml version="1.0" standalone="no"?>
<!DOCTYPE svg PUBLIC "-//W3C//DTD SVG 20010904//EN"
 "http://www.w3.org/TR/2001/REC-SVG-20010904/DTD/svg10.dtd">
<svg version="1.0" xmlns="http://www.w3.org/2000/svg"
 width="1920.000000pt" height="1080.000000pt" viewBox="0 0 1920.000000 1080.000000"
 preserveAspectRatio="xMidYMid meet">
<metadata>
Created by potrace 1.16, written by Peter Selinger 2001-2019
</metadata>
<g transform="translate(0.000000,1080.000000) scale(0.100000,-0.100000)"
fill="#000000" stroke="none">
<path d="M0 7076 c0 -2970 3 -3725 13 -3729 9 -4 9 -6 -1 -6 -17 -1 -18 -1347
-1 -1368 8 -9 8 -13 0 -13 -8 0 -11 -262 -11 -980 l0 -980 1245 0 1245 0 39
43 c39 43 113 87 145 87 9 0 16 4 16 8 0 14 191 34 225 24 25 -7 16 -10 -55
-15 -126 -8 -269 -64 -324 -126 -19 -21 -19 -21 12 -21 18 0 31 5 30 11 -2 6
14 22 35 35 20 13 37 20 37 14 0 -6 -7 -13 -15 -16 -16 -6 -21 -34 -7 -34 4 0
23 11 42 25 36 27 80 33 80 12 0 -7 -15 -21 -32 -30 l-33 -16 43 0 c34 -1 48
4 63 22 10 12 18 27 19 34 0 21 -38 34 -78 26 -20 -4 -39 -7 -42 -8 -3 0 -11
-4 -17 -8 -7 -5 -13 -4 -13 2 0 11 77 37 138 45 44 7 102 -14 102 -35 0 -6
-15 -26 -34 -45 l-34 -34 637 0 c482 0 640 3 649 12 9 9 12 9 12 0 0 -17 1031
-17 1048 0 9 9 12 9 12 0 0 -9 1563 -12 7005 -12 l7005 0 0 412 0 412 -44 -43
c-24 -24 -48 -42 -52 -40 -5 2 -61 19 -124 39 l-115 37 3 69 c2 38 5 70 7 72
2 2 76 -19 164 -46 l161 -50 0 1183 c0 1175 0 1184 -20 1190 -22 7 -26 20 -10
30 6 4 8 10 6 14 -3 4 1 34 9 67 17 69 19 114 6 114 -5 0 -15 2 -23 5 -10 4
-18 -21 -32 -95 -16 -82 -22 -100 -37 -100 -14 0 -17 7 -14 38 2 20 8 57 14
82 23 100 37 88 -206 175 -247 88 -285 105 -331 149 -64 60 -88 135 -71 217 6
28 8 65 5 84 -6 28 -10 32 -29 28 -21 -5 -21 -5 -3 9 18 14 16 20 -34 156 -48
131 -54 141 -81 147 -16 4 -27 10 -24 14 2 5 -7 6 -22 3 -22 -4 -25 -2 -20 12
4 10 7 19 7 22 0 8 36 -9 46 -23 17 -20 23 4 12 45 -6 24 -22 41 -52 60 -42
26 -59 56 -73 123 -5 24 106 618 128 686 12 37 77 99 124 119 18 7 147 40 285
73 236 56 254 59 276 44 44 -29 29 -40 -93 -68 -449 -103 -486 -116 -519 -188
-15 -34 -134 -634 -134 -677 0 -36 18 -53 38 -34 8 8 19 13 26 11 6 -2 41 -80
78 -173 37 -93 74 -187 82 -208 9 -22 18 -38 20 -35 3 2 28 119 56 259 56 278
62 299 98 342 15 18 22 36 19 49 -4 15 -2 19 9 15 20 -8 18 -2 -23 78 -54 105
-55 107 -49 114 3 3 6 0 6 -6 0 -7 7 -12 15 -12 8 0 15 -3 15 -7 0 -5 20 -30
45 -56 24 -27 47 -57 50 -67 6 -20 11 -20 95 3 30 9 117 28 193 43 l137 27 0
289 0 290 -34 -5 c-38 -5 -48 7 -39 41 3 13 16 22 39 27 l34 6 0 2385 0 2384
-22 -5 c-13 -3 -376 -50 -808 -106 -844 -108 -1674 -215 -2180 -280 -173 -22
-318 -44 -322 -47 -7 -7 -38 -246 -63 -477 -14 -134 -35 -303 -89 -705 -14
-102 -27 -205 -30 -230 -3 -25 -30 -236 -61 -470 -66 -504 -93 -716 -140
-1104 -19 -159 -37 -291 -39 -293 -8 -8 -88 11 -92 22 -5 12 405 3337 412
3344 2 2 702 98 1556 212 854 115 1626 218 1716 230 l162 22 0 163 0 164
-9600 0 -9600 0 0 -3724z m13706 2542 c0 -12 -11 -19 -36 -23 -70 -11 -1782
-225 -1801 -225 -10 0 -19 7 -19 15 0 8 1 15 3 16 12 3 1817 234 1832 234 13
0 21 -7 21 -17z m-720 -317 c-14 -211 -18 -238 -34 -238 -13 0 -14 16 -8 114
4 62 5 113 2 113 -3 0 -24 -31 -46 -70 -22 -38 -45 -70 -51 -70 -8 0 -8 -13 5
-77 4 -17 0 -23 -13 -23 -13 0 -25 23 -49 98 l-31 97 -1 -60 c-2 -86 -13 -140
-29 -143 -11 -2 -13 19 -7 125 9 172 15 210 32 210 10 0 14 -14 14 -53 0 -33
5 -54 13 -57 7 -3 19 -23 26 -46 6 -23 16 -41 21 -41 5 0 27 34 50 75 23 41
50 80 61 85 10 6 19 21 19 34 0 14 6 23 16 23 15 0 16 -11 10 -96z m-377 53
c15 -16 54 -162 47 -179 -8 -23 -28 -14 -33 15 -8 54 -35 130 -46 130 -7 0
-20 -30 -30 -67 -31 -120 -32 -113 16 -109 47 3 103 -9 113 -26 4 -6 9 -25 11
-43 2 -23 -1 -32 -12 -32 -8 0 -15 8 -15 18 0 35 -29 50 -91 47 -58 -3 -60 -4
-69 -38 -5 -19 -10 -40 -10 -45 0 -6 -9 -11 -20 -11 -20 0 -25 7 -13 20 4 3 7
14 8 24 4 39 68 269 81 289 14 23 45 26 63 7z m-205 -35 c28 -22 35 -49 12
-49 -7 0 -19 7 -26 15 -7 8 -28 15 -47 15 -91 0 -148 -165 -85 -249 23 -31 60
-38 101 -17 36 19 42 29 45 67 2 27 -1 29 -31 29 -42 0 -45 26 -4 35 46 10 71
-9 71 -53 0 -70 -55 -125 -126 -126 -77 -2 -121 67 -111 174 12 138 119 223
201 159z m822 -39 c0 -11 -3 -20 -6 -20 -54 -4 -144 -21 -155 -30 -10 -8 -15
-32 -15 -72 l0 -60 74 5 c68 5 75 4 73 -13 -1 -14 -13 -19 -52 -24 -87 -10
-113 -8 -125 13 -24 45 -4 173 30 191 15 8 58 16 165 29 6 0 11 -8 11 -19z
m-4285 -10 c76 0 58 -16 -33 -28 -119 -17 -127 -35 -12 -26 l92 7 -2 -97 c0
-53 2 -96 7 -96 4 0 7 -30 7 -67 0 -55 -4 -72 -25 -99 -14 -18 -25 -38 -25
-44 0 -8 9 -10 25 -6 24 6 25 5 25 -50 0 -40 -6 -64 -21 -85 l-20 -29 21 0
c19 0 21 -5 18 -42 l-3 -43 -52 -3 c-43 -2 -53 0 -53 12 0 18 -16 21 -25 6 -3
-5 -1 -10 6 -10 10 0 10 -3 0 -12 -11 -10 -14 -10 -18 0 -6 15 -40 16 -45 0
-5 -13 -7 -14 -154 -28 -77 -8 -118 -8 -138 0 -37 14 -46 13 -46 -5 0 -11 -12
-15 -42 -17 -24 0 -50 -2 -58 -2 -8 -1 -20 5 -27 14 -11 13 -12 13 -13 -2 0
-20 -86 -34 -161 -25 -28 4 -51 2 -55 -4 -3 -6 -11 -3 -19 7 -12 16 -13 16
-24 -4 -7 -14 -21 -22 -36 -22 -24 0 -31 15 -26 56 1 13 -96 37 -111 27 -7 -3
-8 -1 -4 5 4 7 1 12 -8 12 -8 0 -21 3 -30 6 -11 4 -16 1 -16 -10 0 -9 -7 -16
-15 -16 -8 0 -15 9 -15 20 0 22 -33 27 -59 11 -12 -8 -13 -14 -3 -36 7 -15 8
-24 2 -20 -5 3 -10 1 -10 -4 0 -6 5 -11 11 -11 8 0 7 -5 -2 -16 -10 -13 -10
-17 0 -24 10 -5 10 -9 1 -15 -17 -11 -21 -2 -27 64 -5 54 -8 61 -27 61 -18 -1
-19 -2 -5 -10 12 -7 17 -26 18 -70 1 -53 -1 -60 -18 -60 -15 0 -22 9 -26 38
-10 58 -13 61 -14 11 l-1 -46 -42 -7 c-24 -4 -45 -3 -52 4 -12 12 -40 14 -32
2 2 -4 -6 -9 -20 -10 -13 -1 -24 4 -24 11 -1 35 -17 38 -65 13 -26 -15 -56
-26 -66 -26 -11 0 -19 -4 -19 -8 0 -5 -15 -7 -32 -5 -25 3 -30 2 -18 -6 12 -8
7 -11 -22 -11 l-38 0 0 70 c0 67 1 70 23 70 13 0 24 6 24 13 0 9 -9 12 -22 9
-28 -5 -35 18 -34 118 0 51 3 69 9 55 7 -15 9 -16 9 -4 1 9 -5 22 -13 28 -19
16 -16 50 4 56 8 2 78 11 155 20 188 21 199 24 203 62 3 27 0 30 -20 27 -74
-12 -251 -35 -300 -39 l-58 -6 -1 38 c-1 21 -3 52 -5 70 -1 21 3 34 14 38 18
7 32 -11 32 -44 0 -21 3 -23 33 -17 17 3 51 8 75 12 40 6 42 8 42 40 0 18 4
35 8 38 5 3 39 8 75 12 l67 7 0 -32 c0 -31 1 -32 38 -29 34 3 37 6 42 38 l6
35 8 -33 c7 -28 12 -33 34 -30 23 3 27 8 30 40 3 35 5 37 53 47 91 20 109 13
109 -40 0 -15 5 -19 18 -15 9 3 40 8 67 11 80 11 84 13 87 53 l3 37 75 12 c41
6 90 12 108 12 31 1 32 0 32 -41 0 -90 9 -114 49 -129 20 -8 39 -15 44 -17 4
-2 7 6 7 17 0 14 9 25 26 31 33 13 34 13 34 -8 0 -34 12 -31 84 19 39 27 77
49 84 49 7 0 12 7 12 15 0 8 5 15 11 15 6 0 58 32 115 71 98 67 164 96 172 77
2 -4 26 -8 53 -8z m2715 -129 c23 -11 46 -26 50 -34 5 -8 34 -22 64 -32 30
-10 61 -20 68 -23 6 -2 12 2 12 10 0 11 24 18 89 26 130 18 161 16 161 -7 0
-19 -44 -32 -130 -37 -71 -5 -76 -5 -60 -11 8 -2 24 -8 35 -13 11 -5 103 -37
205 -70 102 -33 199 -66 215 -72 50 -17 79 -15 108 9 16 13 33 23 38 24 113
12 144 -26 137 -169 -5 -99 -24 -144 -66 -150 -25 -4 -29 -26 -38 -217 -7
-169 -14 -205 -50 -256 -20 -30 -46 -49 -103 -75 -132 -62 -142 -68 -170 -104
-32 -41 -51 -90 -51 -134 0 -58 262 -1461 280 -1504 11 -24 29 -56 41 -73 21
-30 107 -103 130 -111 17 -6 2 -47 -16 -44 -8 1 -37 17 -66 35 -60 40 -131
131 -153 199 -18 56 -276 1457 -276 1500 0 41 24 105 57 153 22 32 49 51 131
90 57 28 101 53 98 56 -3 3 -172 32 -377 64 l-371 58 -37 -29 c-20 -15 -65
-40 -100 -55 -148 -62 -211 -141 -211 -267 0 -28 72 -433 160 -901 180 -957
174 -933 280 -1037 37 -37 128 -99 280 -190 234 -141 272 -174 286 -245 3 -18
-2 -150 -10 -295 -9 -145 -15 -265 -13 -267 3 -2 137 73 300 167 163 93 301
170 306 170 6 0 14 -7 19 -16 18 -32 31 40 46 256 22 291 21 302 -9 338 -14
17 -70 56 -125 87 -56 32 -99 62 -97 68 11 34 35 29 133 -27 54 -32 111 -69
126 -83 49 -47 52 -73 34 -311 -9 -119 -19 -239 -22 -266 -8 -62 -43 -102
-110 -124 -28 -9 -152 -77 -276 -151 l-225 -134 -7 -111 c-4 -61 -10 -160 -12
-221 -4 -98 -14 -139 -29 -123 -3 3 1 100 8 217 11 189 11 211 -3 209 -12 -3
-16 -21 -18 -88 -2 -47 -8 -89 -13 -95 -8 -7 -9 11 -5 57 7 92 -7 102 -68 49
-26 -22 -65 -45 -87 -51 -29 -8 -43 -18 -50 -37 -5 -15 -28 -340 -49 -722 -48
-860 -47 -834 -35 -838 6 -1 52 37 104 85 l94 87 8 100 c23 260 28 288 22 130
-2 -82 -9 -168 -13 -190 -10 -45 -6 -55 15 -34 12 12 20 82 35 318 10 167 21
306 24 309 17 16 18 -25 7 -195 -6 -102 -8 -190 -4 -194 4 -4 116 -48 248 -98
277 -104 285 -110 285 -199 0 -117 52 -49 -583 -762 -151 -170 -159 -177 -200
-173 -43 4 -1162 359 -1151 365 17 10 56 -1 577 -165 290 -92 534 -167 541
-167 16 0 32 116 21 150 -8 26 -17 30 -437 216 -194 86 -378 170 -408 187
-195 110 -297 324 -246 514 8 29 26 84 41 122 26 67 29 69 67 75 23 4 42 5 44
3 2 -2 -9 -37 -26 -77 -60 -146 -67 -203 -38 -317 10 -39 15 -44 52 -54 22 -6
122 -32 221 -59 386 -104 496 -132 501 -127 6 6 97 1717 92 1722 -6 6 -233
-16 -270 -26 -84 -22 -145 -100 -208 -264 -13 -33 -25 -62 -26 -64 -9 -10 -64
24 -64 39 0 10 16 57 36 104 58 139 147 220 266 246 29 6 153 19 276 29 201
16 226 20 245 39 19 20 22 42 39 314 10 161 16 307 13 324 -3 18 -14 43 -25
56 -10 13 -121 87 -245 164 -128 78 -248 160 -275 187 -61 58 -113 147 -134
224 -9 32 -86 429 -172 883 -136 721 -155 835 -152 905 6 146 70 231 230 308
102 48 141 84 158 145 11 41 40 658 32 699 -10 54 -13 54 -597 -102 -303 -81
-560 -147 -572 -148 -12 -1 -23 3 -24 8 0 6 -5 16 -11 23 -6 7 -9 14 -7 15 4
3 1065 291 1134 308 46 11 57 10 101 -10z m-4791 -213 c9 -55 33 -518 28 -538
-6 -24 17 -21 -528 -70 -242 -22 -493 -45 -558 -51 -65 -6 -121 -9 -124 -5 -9
8 -48 495 -40 502 3 3 185 35 404 69 219 35 481 77 583 93 240 39 228 39 235
0z m6361 2 c-3 -8 -7 -64 -11 -125 -8 -153 -14 -185 -32 -185 -13 0 -14 15 -8
112 9 129 4 131 -55 29 -20 -34 -40 -59 -47 -56 -9 3 -10 -2 -3 -21 19 -50 20
-75 3 -72 -11 2 -28 34 -47 88 l-31 85 -7 -45 c-3 -25 -7 -65 -7 -90 -1 -37
-5 -46 -19 -47 -16 -1 -18 5 -15 50 2 29 7 101 11 161 6 96 9 109 26 112 17 2
18 -2 13 -47 -5 -37 -3 -49 7 -49 12 0 23 -19 40 -72 10 -31 23 -20 68 57 27
48 49 75 61 75 12 0 17 8 17 28 0 21 5 28 20 28 13 0 19 -6 16 -16z m-362 0
c43 -16 59 -62 54 -159 -5 -99 -23 -142 -71 -171 -39 -24 -47 -25 -47 -2 0 9
10 22 22 27 34 15 58 66 64 136 10 106 -27 159 -96 139 -47 -14 -69 -48 -82
-124 -13 -76 -4 -132 22 -149 19 -11 28 -47 13 -47 -14 1 -50 34 -62 57 -6 12
-11 48 -11 81 0 161 85 254 194 212z m746 -410 c0 -15 -7 -20 -27 -20 -16 0
-201 -11 -413 -25 -459 -30 -440 -29 -440 -10 0 8 1 16 3 16 3 2 795 56 840
58 31 1 37 -2 37 -19z m-8091 -247 c28 -70 60 -385 47 -456 -5 -29 -13 -38
-39 -46 -43 -14 -274 -31 -415 -31 l-113 0 -30 33 c-42 44 -45 55 -59 202 -11
116 -11 136 5 188 12 41 23 61 38 66 53 20 389 68 493 70 58 1 62 0 73 -26z
m9296 -94 l65 -81 0 -211 c0 -200 -6 -258 -89 -1000 -66 -590 -92 -791 -102
-798 -8 -5 -32 -14 -54 -21 -65 -19 -75 -33 -75 -103 0 -70 14 -90 69 -101 18
-4 35 -13 38 -20 9 -23 -59 -582 -73 -605 -3 -5 -14 -9 -24 -9 -10 0 -21 -6
-23 -12 -3 -8 -6 -6 -6 5 -1 9 -8 17 -16 17 -18 0 -20 20 -2 20 6 0 4 5 -5 11
-10 5 -18 21 -18 35 0 14 -4 23 -9 20 -10 -7 -7 197 9 539 l10 209 -29 31
c-29 29 -30 32 -26 120 7 172 31 303 70 393 46 104 51 129 125 622 33 223 63
422 66 443 3 22 1 73 -6 115 -10 67 -9 101 9 252 12 96 21 183 22 193 0 9 2
17 4 17 2 0 34 -36 70 -81z m3089 -275 c14 -5 14 -8 1 -27 -11 -15 -12 -24 -3
-34 16 -20 31 -16 25 7 -3 11 -1 17 5 14 5 -3 8 -16 7 -27 -2 -37 1 -48 11
-42 6 3 10 1 10 -4 0 -6 7 -11 16 -11 13 0 14 -3 5 -13 -15 -19 -4 -27 38 -29
47 -2 -169 -15 -281 -17 l-86 -1 4 38 c2 20 9 60 15 89 9 45 14 52 37 56 45 7
179 7 196 1z m-1949 -226 c-4 -40 -8 -100 -10 -133 -2 -34 -13 -133 -25 -220
-20 -146 -26 -165 -59 -222 -60 -103 -60 -101 -26 161 14 105 28 210 30 233 5
32 11 42 29 47 17 4 25 15 29 38 4 18 11 63 18 101 6 37 13 67 16 67 3 0 2
-33 -2 -72z m-579 -216 c-13 -143 -16 -147 -96 -136 l-47 6 3 57 c2 31 6 71 9
88 3 18 5 36 3 40 -3 9 39 17 95 19 l40 2 -7 -76z m-6937 -54 c-33 -62 -249
-352 -236 -315 4 9 10 25 14 34 8 21 -148 -99 -182 -139 -36 -42 -33 -68 6
-68 21 0 40 10 61 31 22 22 33 27 39 18 6 -10 24 -8 84 6 41 9 78 15 81 13 2
-3 -37 -20 -88 -39 -88 -32 -94 -36 -115 -79 -13 -24 -23 -52 -23 -62 0 -26
38 -23 83 7 45 31 51 65 11 65 -16 0 -24 5 -21 13 2 7 23 12 53 13 29 0 68 9
94 22 61 29 87 27 30 -2 -43 -23 -101 -74 -90 -80 3 -2 -5 -14 -17 -27 -12
-13 -36 -41 -54 -62 -17 -21 -34 -35 -37 -33 -3 3 1 12 8 21 19 23 5 30 -29
15 -49 -20 -64 -8 -59 48 3 26 8 55 12 64 6 12 3 16 -11 14 -13 -2 -20 -14
-23 -43 -6 -42 -38 -90 -73 -110 -30 -17 -188 -17 -211 0 -36 26 -4 69 77 102
20 8 37 11 37 6 0 -5 -9 -12 -19 -16 -25 -8 -71 -44 -71 -56 0 -5 12 -14 28
-20 40 -16 124 5 162 41 40 38 36 63 -10 71 l-35 6 33 14 c25 11 32 19 32 42
0 64 29 101 170 217 30 25 109 100 175 167 66 67 121 122 123 123 1 0 -3 -10
-9 -22z m8386 -309 c-4 -6 1 -5 13 2 11 7 27 9 38 4 13 -5 15 -9 6 -12 -6 -3
-10 -9 -6 -14 8 -14 24 -11 24 6 0 22 14 19 49 -11 24 -20 31 -34 31 -62 l-1
-37 -14 33 c-19 43 -24 41 -18 -7 3 -21 0 -47 -6 -57 -9 -17 -10 -17 -11 7 0
43 -20 89 -38 89 -14 0 -14 -2 -3 -9 16 -11 26 -87 17 -137 -10 -50 -24 -31
-28 36 l-3 55 -14 -43 c-14 -42 -32 -41 -26 2 15 98 16 118 6 111 -6 -3 -18
-19 -26 -36 -24 -46 -34 -34 -19 24 17 63 17 66 1 47 -7 -8 -22 -20 -34 -27
-17 -10 -21 -9 -19 2 4 25 29 45 58 45 18 0 27 -4 23 -11z m-8253 -100 c-36
-91 -46 -129 -32 -129 5 0 16 15 24 34 19 46 49 63 119 68 45 3 57 1 57 -10 0
-11 7 -13 28 -7 45 12 192 18 192 8 0 -14 -96 -35 -128 -29 -35 8 -109 -23
-140 -58 -12 -15 -29 -26 -38 -26 -11 0 -5 12 20 42 32 37 46 68 30 68 -3 0
-33 -19 -66 -42 -57 -40 -60 -44 -54 -76 4 -29 3 -32 -9 -22 -8 7 -15 19 -15
27 0 11 -4 11 -20 3 -25 -13 -27 -64 -5 -117 14 -32 14 -34 -1 -22 -21 17 -44
63 -44 89 0 25 -7 25 -45 0 -16 -11 -42 -20 -56 -20 -33 0 -72 44 -66 76 2 13
0 25 -6 27 -5 1 10 15 33 31 41 27 66 31 35 6 -8 -7 -15 -19 -15 -28 0 -13 3
-12 20 3 11 10 41 20 68 23 l49 4 43 87 c51 101 63 96 22 -10z m9136 -45 c32
-5 47 -34 17 -34 -8 0 -15 -9 -15 -20 0 -20 13 -24 65 -21 27 2 49 -14 41 -28
-10 -15 -396 -15 -396 0 0 24 81 108 108 111 30 4 130 0 180 -8z m-1436 -19
c10 -4 15 -12 12 -17 -4 -6 6 -9 22 -7 39 4 59 -8 43 -27 -6 -8 -18 -14 -26
-14 -12 0 -14 -7 -9 -30 6 -32 -9 -84 -21 -77 -5 3 -17 1 -28 -4 -16 -6 -14
-8 12 -8 l32 -1 -15 -36 c-8 -20 -11 -33 -6 -30 5 3 15 19 22 36 12 29 40 42
40 19 0 -8 4 -8 14 0 10 8 25 9 48 3 30 -8 33 -12 30 -42 -3 -41 -1 -38 -36
-44 -47 -8 -40 -13 29 -20 35 -4 71 -9 79 -12 24 -9 -37 -61 -86 -74 -27 -8
-37 -14 -29 -20 9 -5 12 -22 8 -53 -5 -43 -4 -46 21 -56 15 -5 21 -10 15 -10
-7 -1 -13 -9 -13 -19 0 -10 -6 -24 -12 -30 -10 -10 -10 -15 -1 -20 13 -8 6
-52 -8 -52 -5 0 -9 -6 -9 -14 0 -7 -17 -17 -41 -22 -43 -10 -53 -27 -19 -32
19 -3 19 -5 3 -20 -21 -21 -89 -52 -114 -52 -11 0 -22 7 -25 15 -6 14 -8 13
-20 -2 -20 -26 -17 -41 9 -46 12 -2 -3 -5 -34 -6 -38 -1 -60 4 -68 13 -10 11
-3 79 29 308 22 161 44 300 47 308 3 8 5 26 4 40 -3 42 16 80 41 81 l23 2 -22
4 c-25 5 -26 7 -17 50 5 24 10 29 32 28 15 -1 35 -6 44 -10z m-9741 -61 c-12
-19 -21 -37 -21 -39 0 -7 90 -10 92 -3 7 20 30 -14 35 -51 7 -51 21 -53 25 -4
2 20 9 38 16 41 10 3 11 -7 6 -47 -6 -49 -6 -51 18 -51 16 0 25 -6 25 -16 0
-13 -8 -15 -46 -9 -25 3 -52 14 -59 23 -10 14 -16 14 -32 4 -11 -6 -29 -12
-40 -12 -17 0 -20 7 -20 46 0 56 -23 57 -28 1 -3 -36 -5 -37 -41 -37 -21 0
-65 3 -99 6 l-61 7 2 58 2 59 91 -6 c86 -6 93 -5 103 14 12 22 39 52 48 52 3
0 -4 -16 -16 -36z m5433 -76 l15 -33 -6 33 c-3 20 -1 32 6 32 6 0 11 -16 11
-35 0 -22 6 -38 15 -41 24 -10 17 -29 -10 -32 -14 -1 -25 3 -25 8 0 6 -4 10
-10 10 -5 0 -10 -7 -10 -15 0 -8 -9 -15 -19 -15 -16 0 -21 9 -27 45 -8 60 -25
58 -21 -2 l2 -48 -64 -8 c-72 -10 -81 -5 -81 50 0 17 -4 35 -10 38 -24 15 -5
23 73 32 144 17 145 17 161 -19z m6722 -172 c-9 -41 -16 -89 -16 -106 0 -16
-9 -56 -19 -87 -11 -32 -25 -89 -31 -128 -13 -74 -40 -178 -46 -173 -5 5 15
142 37 249 10 53 16 110 13 126 -4 19 1 48 14 79 11 27 28 76 38 108 25 80 31
37 10 -68z m-3296 -262 c0 -3 -6 -29 -14 -57 -12 -44 -45 -191 -62 -274 -3
-15 -9 -20 -24 -16 -24 6 -24 -6 0 183 11 85 20 158 20 163 0 4 18 7 40 7 22
0 40 -3 40 -6z m6 -161 c-3 -16 -31 -224 -61 -463 -73 -575 -73 -575 -81 -605
-5 -22 -11 -25 -50 -25 -38 0 -44 3 -44 21 0 11 18 167 40 345 22 179 40 329
40 334 0 6 15 16 33 24 31 12 35 20 50 82 10 38 17 78 17 89 0 36 45 225 53
225 5 0 6 -12 3 -27z m-9117 -157 c35 -8 68 -19 74 -25 5 -5 16 -7 23 -4 10 4
14 -3 14 -21 0 -18 -5 -26 -17 -26 -13 -1 -9 -6 11 -17 25 -13 27 -17 13 -25
-19 -10 -23 -28 -6 -28 5 0 7 6 3 13 -4 6 2 4 13 -5 22 -20 43 -24 43 -8 0 6
-5 10 -11 10 -5 0 -7 5 -4 10 3 6 11 10 16 10 6 0 7 -5 3 -12 -5 -8 -2 -9 9
-5 11 4 17 1 17 -9 0 -8 -4 -12 -10 -9 -5 3 -10 -1 -10 -9 0 -9 -8 -16 -17
-16 -9 0 -25 -7 -35 -17 -10 -9 -18 -12 -18 -7 0 5 -13 9 -30 10 -25 1 -28 -1
-20 -17 8 -15 6 -16 -13 -10 -67 20 -127 47 -127 56 0 6 -14 19 -32 30 -27 16
-29 19 -14 25 15 5 14 8 -9 18 -15 7 -25 15 -22 19 4 3 -3 13 -15 23 -12 9
-22 29 -22 43 -2 26 -1 26 64 22 36 -2 94 -11 129 -19z m8798 -240 c5 -4 -15
-177 -21 -183 -2 -2 -22 1 -45 7 -41 11 -51 23 -30 35 6 4 7 14 4 24 -17 42
-7 105 19 124 10 7 64 2 73 -7z m-9529 -137 c23 1 42 -3 42 -9 0 -5 6 -7 13
-4 8 3 34 0 58 -6 40 -11 107 -19 182 -23 15 -1 27 -5 27 -10 0 -4 5 -5 11 -2
6 4 8 13 5 20 -6 18 31 26 44 10 8 -10 8 -15 0 -20 -28 -17 35 -39 175 -59 11
-1 27 -5 35 -9 8 -3 58 -13 110 -22 121 -20 153 -28 158 -43 2 -7 -1 -12 -8
-12 -6 0 -9 -4 -6 -8 6 -10 -34 -6 -90 7 -46 12 -117 23 -154 25 -14 0 -27 3
-30 7 -5 5 -104 29 -123 29 -7 0 -7 -3 -1 -9 5 -5 72 -23 149 -40 77 -18 159
-41 181 -52 23 -10 50 -17 60 -13 14 4 15 3 6 -4 -11 -7 -11 -10 2 -15 9 -4
16 -17 16 -30 0 -21 -4 -23 -26 -19 -19 3 -25 1 -20 -7 4 -6 2 -11 -3 -11 -6
0 -11 -7 -11 -15 0 -8 -7 -15 -15 -15 -8 0 -15 6 -15 14 0 8 -8 13 -17 11 -10
-1 -26 2 -35 6 -10 6 -19 5 -23 -1 -3 -6 1 -13 9 -16 9 -3 13 -10 10 -15 -10
-17 -22 -9 -30 19 -5 20 -8 23 -11 10 -6 -24 -23 -23 -23 1 0 12 -9 20 -25 23
-14 3 -25 1 -25 -6 0 -6 -5 -4 -10 4 -8 13 -10 12 -10 -2 0 -11 -8 -18 -20
-18 -15 0 -20 -7 -20 -30 0 -16 5 -40 11 -54 7 -14 9 -33 5 -42 -6 -16 -9 -16
-29 4 -17 18 -19 26 -11 39 8 13 6 26 -9 55 -12 21 -24 38 -28 38 -4 0 -5 8
-2 19 3 10 0 22 -6 25 -6 4 -11 0 -11 -8 0 -19 -16 -29 -31 -20 -8 4 -7 9 2
15 11 6 10 9 -4 15 -9 3 -14 10 -11 15 3 5 -2 9 -10 9 -9 0 -15 3 -15 8 1 4 1
18 0 31 -1 21 -3 22 -18 10 -9 -8 -14 -9 -10 -3 4 7 -2 14 -13 17 -11 3 -18 2
-16 -2 9 -15 -11 -30 -32 -24 -12 3 -20 8 -18 12 2 3 0 15 -5 26 -7 17 -8 17
-8 -7 -1 -30 -7 -33 -31 -18 -9 6 -20 5 -30 -3 -8 -6 -12 -8 -8 -3 4 5 -2 27
-14 50 -11 22 -21 49 -22 59 -1 9 -5 17 -10 16 -5 0 -12 4 -15 9 -9 14 -105
33 -109 21 -2 -5 -13 -9 -23 -9 -11 0 -18 4 -15 9 9 14 -17 30 -72 42 -29 6
-52 14 -52 19 0 4 19 3 43 -2 23 -6 61 -10 85 -9z m-556 -184 c24 -13 53 -26
64 -28 37 -6 51 -22 82 -97 70 -171 78 -224 156 -1000 25 -245 50 -508 56
-585 6 -77 13 -161 16 -187 4 -39 2 -48 -11 -48 -8 0 -15 5 -15 10 0 6 -8 13
-17 17 -10 3 -35 24 -56 46 -20 22 -40 37 -44 34 -3 -4 -25 11 -49 33 -25 23
-49 37 -58 34 -9 -4 -20 8 -32 35 -10 23 -23 41 -29 41 -5 0 -16 9 -23 20 -7
11 -19 20 -27 20 -8 0 -15 7 -15 15 0 8 -3 15 -8 15 -4 0 -28 20 -54 44 -34
32 -46 50 -43 65 2 12 1 19 -3 17 -7 -4 -66 80 -67 94 -1 3 -8 19 -17 35 -8
17 -18 47 -22 67 -4 20 -12 38 -18 40 -6 2 -13 15 -15 27 -3 25 -33 93 -43
101 -7 5 -34 141 -35 177 0 12 -3 24 -6 27 -13 13 7 279 21 284 6 2 10 13 11
25 1 34 17 -24 24 -92 4 -31 9 -64 12 -74 7 -25 338 -189 372 -185 22 2 27 9
29 38 6 62 -58 683 -75 722 -13 30 -25 40 -65 55 -27 9 -56 26 -66 36 -15 17
-15 20 -2 30 8 7 14 19 14 27 -1 8 -2 21 -3 28 0 6 -6 12 -12 12 -5 0 -7 -6
-3 -12 5 -10 4 -10 -6 -1 -14 13 -4 37 12 27 7 -4 8 -2 4 4 -8 13 0 32 13 32
5 0 28 -11 53 -25z m-3889 -11 c7 -7 -9 -42 -62 -131 l-36 -62 -55 -6 c-30 -3
-69 -10 -86 -15 -17 -6 -38 -8 -45 -5 -8 2 -48 1 -89 -4 -84 -10 -101 -3 -76
31 9 13 28 40 41 61 34 49 95 117 107 117 5 0 6 -5 2 -11 -5 -9 26 -10 121 -5
100 6 126 5 120 -5 -5 -8 -4 -10 3 -5 7 4 12 13 12 21 0 18 30 31 43 19z
m3137 -138 c0 -14 -4 -27 -10 -31 -15 -9 -227 -53 -367 -75 -71 -11 -162 -27
-203 -35 -41 -8 -120 -22 -175 -30 -55 -9 -110 -18 -121 -20 -18 -3 -23 3 -28
37 -4 22 -5 42 -3 44 1 2 79 15 172 29 94 14 210 32 260 41 139 25 396 62 438
63 33 1 37 -2 37 -23z m14403 -3109 c9 -23 -2 -91 -48 -300 -25 -115 -45 -220
-45 -235 0 -49 73 -353 84 -349 6 2 19 37 28 78 10 41 29 119 43 174 l25 100
-5 -105 c-5 -103 -42 -291 -62 -311 -11 -11 15 -121 29 -127 10 -5 -2 -244
-13 -256 -5 -5 -18 -3 -32 6 -21 14 -31 52 -100 379 -43 200 -77 376 -77 390
0 52 12 87 33 96 16 7 25 28 39 93 10 46 16 85 15 87 -2 1 -118 21 -258 43
-140 22 -300 52 -357 66 -56 15 -104 25 -106 23 -2 -2 27 -281 65 -619 38
-338 69 -622 69 -630 0 -12 80 -32 350 -90 l350 -75 0 -36 c0 -20 -3 -50 -6
-67 -7 -36 31 -41 -346 44 -157 35 -300 64 -316 64 -41 0 -50 -15 -69 -113
-13 -69 -14 -88 -4 -101 7 -8 169 -67 361 -131 l348 -116 0 -34 c0 -19 -1 -35
-3 -35 -2 0 -171 57 -377 126 -308 104 -379 132 -405 157 -18 17 -33 37 -33
44 0 8 -7 27 -15 43 -11 21 -29 200 -66 652 -27 343 -50 655 -50 693 -1 78 24
208 46 241 7 11 28 27 46 34 28 12 72 7 411 -44 209 -32 382 -56 384 -54 2 3
13 50 26 106 20 97 30 118 41 89z m330 -415 l26 -27 -45 -200 c-25 -110 -47
-202 -50 -204 -6 -6 -5 0 11 229 8 113 15 211 15 218 0 19 14 14 43 -16z
m-16648 -52 c0 -31 -59 -62 -121 -65 -23 -1 -46 -5 -53 -9 -6 -4 -11 -2 -11 3
0 6 -14 11 -31 11 -39 0 -34 18 10 44 56 32 104 46 156 43 46 -2 50 -4 50 -27z
m8845 -124 c-18 -18 -10 -25 28 -21 28 3 32 2 16 -5 -28 -11 -40 -30 -20 -30
25 0 19 -19 -9 -30 -28 -11 -35 -22 -7 -14 14 5 15 4 2 -5 -8 -6 -23 -11 -32
-11 -10 0 -18 -4 -18 -9 0 -13 -17 -17 -126 -36 -59 -10 -99 -12 -115 -7 l-24
9 23 7 c12 4 22 12 22 17 0 6 -4 7 -10 4 -5 -3 -10 1 -10 9 0 8 5 18 10 21 6
3 10 14 10 24 0 21 34 34 152 58 48 9 85 20 82 25 -2 4 5 6 16 5 13 -1 16 -5
10 -11z m-10697 -301 c9 -4 17 -11 17 -16 0 -21 -60 -31 -172 -27 -132 3 -165
17 -107 43 26 12 58 15 139 11 58 -2 113 -7 123 -11z m1753 -259 c13 -13 10
-19 -20 -49 -43 -43 -84 -64 -141 -73 -62 -9 -79 -1 -64 28 17 32 40 47 70 48
14 0 36 11 48 24 21 23 40 31 79 35 7 0 20 -6 28 -13z m1004 -4 c0 -25 -189
-74 -337 -88 -140 -14 -33 40 152 76 99 19 185 25 185 12z m15746 -473 c56
-13 56 -13 40 -106 -7 -41 -15 -51 -29 -36 -4 3 -21 8 -39 10 -17 2 -49 8 -71
14 l-40 10 7 46 c3 25 6 54 6 64 0 20 27 20 126 -2z m-2751 -91 c81 -40 96
-50 106 -74 14 -37 12 -42 -20 -49 -36 -8 -101 18 -101 39 0 10 -9 16 -26 16
-21 0 -24 3 -19 20 4 12 0 31 -9 45 -9 13 -16 27 -16 30 0 8 36 -3 85 -27z
m1110 -8 c11 -18 -9 -38 -63 -64 -47 -23 -68 -27 -122 -24 -52 2 -65 6 -68 21
-2 10 3 17 12 17 9 0 16 4 16 9 0 19 139 58 187 53 18 -2 35 -8 38 -12z
m-3466 -159 c10 -11 21 -18 24 -15 3 4 9 -6 13 -20 8 -31 -1 -45 -18 -28 -17
17 -26 15 -33 -9 -6 -17 -9 -18 -22 -7 -10 8 -35 12 -61 10 -24 -1 -50 3 -58
9 -17 14 -15 69 3 69 7 0 13 5 13 11 0 21 118 4 139 -20z m-10085 0 c26 -28
18 -82 -14 -98 -87 -42 -112 -53 -120 -53 -5 0 -13 18 -16 40 -4 22 -10 40
-15 40 -4 0 -4 -13 1 -29 5 -19 4 -33 -3 -40 -17 -17 -27 -13 -27 9 0 20 -15
28 -22 12 -1 -5 -20 -7 -40 -4 -35 4 -36 5 -26 28 12 25 79 73 138 97 53 21
124 21 144 -2z m4276 -52 c65 -8 113 -29 99 -43 -8 -8 -162 -9 -203 -1 -21 4
-55 9 -75 10 -20 2 -39 4 -43 4 -20 2 -5 31 20 37 15 3 32 7 37 8 11 3 49 0
165 -15z"/>
<path d="M11730 8939 c-1 -95 -30 -597 -35 -614 -6 -19 13 -23 377 -86 211
-37 387 -63 392 -59 5 5 15 107 22 227 7 120 15 242 17 271 2 33 0 55 -7 57
-6 2 -175 54 -376 116 -201 61 -371 114 -377 117 -9 3 -13 -7 -13 -29z"/>
<path d="M11996 4668 c-8 -105 -86 -1556 -86 -1597 0 -17 3 -31 8 -31 4 1 24
16 45 35 34 30 37 35 26 54 -11 16 -6 157 30 788 23 422 45 783 48 801 5 31 4
32 -30 32 l-35 0 -6 -82z"/>
<path d="M12290 3446 c0 -36 5 -68 10 -71 6 -3 10 -22 10 -42 0 -32 -12 -46
-142 -172 -285 -273 -263 -255 -316 -253 -26 0 -192 39 -369 85 -178 46 -323
81 -323 78 0 -7 82 -63 120 -82 13 -6 146 -65 294 -130 212 -93 273 -116 288
-108 16 9 22 5 19 -13 0 -4 25 -18 57 -33 31 -14 77 -36 102 -49 l45 -24 335
354 c184 195 336 358 338 363 2 5 -21 14 -50 20 -29 6 -129 41 -222 76 -92 36
-175 65 -182 65 -11 0 -14 -16 -14 -64z"/>
<path d="M12473 2938 l-343 -370 0 -59 c0 -33 4 -59 9 -59 6 0 31 25 58 56 26
32 65 75 87 98 21 23 147 162 280 309 l241 268 5 64 c3 36 5 65 5 65 0 -1
-154 -168 -342 -372z"/>
<path d="M17722 1958 c-9 -44 -2 -159 40 -653 27 -330 52 -607 55 -615 4 -9 9
-2 15 20 5 19 14 40 18 45 5 6 8 33 6 60 -7 129 -111 1195 -117 1195 -3 0 -11
-24 -17 -52z"/>
<path d="M19045 4790 c-182 -38 -238 -70 -264 -150 -20 -60 -163 -763 -163
-803 -1 -42 26 -78 75 -104 23 -11 495 -183 505 -183 1 0 2 286 2 635 0 502
-3 635 -12 634 -7 0 -72 -13 -143 -29z"/>
</g>
</svg>
